# xmcd CD database file
#
# Track frame offsets:
#	150
#	33964
#	68927
#	100549
#	134540
#	168378
#	197474
#	225652
#
# Disc length: 3518 seconds
#
# Revision: 0
# Processed by: cddbd v1.5.1PL2 Copyright (c) Steve Scherf et al.
# Submitted via: CDex 1.50
#
DISCID=610dbc08
DTITLE=Eric Barret - New shapes
DYEAR=1999
DGENRE=Jazz
TTITLE0=I'm beginning to see the dark
TTITLE1=Bleu ou presque
TTITLE2=En pays d'Ourcq
TTITLE3=Féline
TTITLE4=Colline's lullaby
TTITLE5=L'aire du bout du monde
TTITLE6=Her green eyes
TTITLE7=Uzma song
EXTD=YEAR: 1999
EXTT0=
EXTT1=
EXTT2=
EXTT3=
EXTT4=
EXTT5=
EXTT6=
EXTT7=
PLAYORDER=
